<?xml version="1.0" standalone="no"?><!DOCTYPE svg PUBLIC "-//W3C//DTD SVG 1.1//EN" "http://www.w3.org/Graphics/SVG/1.1/DTD/svg11.dtd"><svg t="1616508576827" class="icon" viewBox="0 0 1024 1024" version="1.1" xmlns="http://www.w3.org/2000/svg" p-id="2492" xmlns:xlink="http://www.w3.org/1999/xlink" width="200" height="200"><defs><style type="text/css"></style></defs><path d="M512 0C229.2352 0 0 229.2352 0 512s229.2352 512 512 512 512-229.2352 512-512S794.7648 0 512 0z m0 76.8c240.3584 0 435.2 194.8416 435.2 435.2S752.3584 947.2 512 947.2 76.8 752.3584 76.8 512 271.6416 76.8 512 76.8z" fill="#dbdbdb" p-id="2493"></path><path d="M383.7056 329.5232l1.8432 1.728L512 457.6896l126.4512-126.4384 1.8432-1.728a38.4 38.4 0 0 1 52.4544 56.0256L566.3104 512l126.4384 126.4512a38.4 38.4 0 0 1-52.4544 56.0256l-1.8432-1.728L512 566.3104l-126.4512 126.4384-1.8432 1.728a38.4 38.4 0 0 1-52.4544-56.0256L457.6896 512l-126.4384-126.4512a38.4 38.4 0 0 1 52.4544-56.0256z" fill="#FF6F26" p-id="2494"></path></svg>