<?xml version="1.0" standalone="no"?><!DOCTYPE svg PUBLIC "-//W3C//DTD SVG 1.1//EN" "http://www.w3.org/Graphics/SVG/1.1/DTD/svg11.dtd"><svg t="1616509645207" class="icon" viewBox="0 0 1024 1024" version="1.1" xmlns="http://www.w3.org/2000/svg" p-id="2883" xmlns:xlink="http://www.w3.org/1999/xlink" width="200" height="200"><defs><style type="text/css"></style></defs><path d="M512 0C229.2352 0 0 229.2352 0 512s229.2352 512 512 512 512-229.2352 512-512S794.7648 0 512 0z m0 76.8c240.3584 0 435.2 194.8416 435.2 435.2S752.3584 947.2 512 947.2 76.8 752.3584 76.8 512 271.6416 76.8 512 76.8z" fill="#7FFFAA" p-id="2884"></path><path d="M411.0464 704.2176a38.4 38.4 0 0 0 54.0288 2.7904l1.7664-1.664 264.5248-268.8a38.4 38.4 0 0 0-52.9024-55.616l-1.8304 1.7408L440.576 622.528l-104.96-115.5456a38.4 38.4 0 0 0-52.3904-4.1856l-1.8432 1.5744a38.4 38.4 0 0 0-4.1856 52.4032l1.5744 1.8432 132.2752 145.6z" fill="#FF6F26" p-id="2885"></path></svg>