<?xml version="1.0" standalone="no"?><!DOCTYPE svg PUBLIC "-//W3C//DTD SVG 1.1//EN" "http://www.w3.org/Graphics/SVG/1.1/DTD/svg11.dtd"><svg t="1616509596156" class="icon" viewBox="0 0 1024 1024" version="1.1" xmlns="http://www.w3.org/2000/svg" p-id="2881" xmlns:xlink="http://www.w3.org/1999/xlink" width="200" height="200"><defs><style type="text/css"></style></defs><path d="M512 0C229.2352 0 0 229.2352 0 512s229.2352 512 512 512 512-229.2352 512-512S794.7648 0 512 0z m0 76.8c240.3584 0 435.2 194.8416 435.2 435.2S752.3584 947.2 512 947.2 76.8 752.3584 76.8 512 271.6416 76.8 512 76.8z" fill="#FF7F50" p-id="2882"></path><path d="M512 665.6a51.2 51.2 0 1 1 0 102.4 51.2 51.2 0 0 1 0-102.4z m0-409.6a38.4 38.4 0 0 1 38.336 36.1472L550.4 294.4v268.8a38.4 38.4 0 0 1-76.736 2.2528L473.6 563.2V294.4a38.4 38.4 0 0 1 38.4-38.4z" fill="#FF6F26" p-id="2883"></path></svg>